<svg xmlns="http://www.w3.org/2000/svg" xmlns:xlink="http://www.w3.org/1999/xlink" version="1.1" width="256" height="256" viewBox="0 0 256 256" xml:space="preserve">

<defs fill="#f5821f">
</defs>
<g style="stroke: none; stroke-width: 0; stroke-dasharray: none; stroke-linecap: butt; stroke-linejoin: miter; stroke-miterlimit: 10; fill: none; fill-rule: nonzero; opacity: 1;" transform="translate(1.4065934065934016 1.4065934065934016) scale(2.81 2.81)">
	<path d="M 58.596 15.983 l -12.88 9.714 c -0.441 0.333 -0.529 0.959 -0.196 1.4 c 0.196 0.261 0.496 0.398 0.799 0.398 c 0.209 0 0.421 -0.065 0.602 -0.202 l 12.881 -9.714 c 0.44 -0.333 0.528 -0.959 0.196 -1.4 C 59.664 15.739 59.04 15.65 58.596 15.983 z" style="stroke: none; stroke-width: 1; stroke-dasharray: none; stroke-linecap: butt; stroke-linejoin: miter; stroke-miterlimit: 10; fill:#f5821f; fill-rule: nonzero; opacity: 1;" transform=" matrix(1 0 0 1 0 0) " stroke-linecap="round"/>
	<path d="M 86.574 31.243 h -4.886 L 62.563 5.885 c -1.135 -1.507 -3.288 -1.81 -4.798 -0.672 l -34.514 26.03 h -7.323 c -1.889 0 -3.425 1.537 -3.425 3.425 v 4.68 L 1.364 47.75 c -0.73 0.552 -1.203 1.354 -1.33 2.26 c -0.127 0.906 0.107 1.808 0.658 2.538 l 11.813 15.664 v 5.994 c 0 1.889 1.537 3.426 3.425 3.426 h 3.679 l 4.889 6.483 c 0.672 0.891 1.699 1.36 2.739 1.36 c 0.718 0 1.442 -0.225 2.059 -0.688 l 9.487 -7.155 h 47.792 c 1.889 0 3.426 -1.537 3.426 -3.426 V 34.668 C 90 32.779 88.463 31.243 86.574 31.243 z M 58.971 6.81 c 0.304 -0.23 0.682 -0.326 1.056 -0.273 c 0.378 0.053 0.712 0.25 0.94 0.553 l 18.216 24.153 H 26.573 L 58.971 6.81 z M 2.288 51.343 c -0.229 -0.304 -0.327 -0.679 -0.273 -1.056 c 0.053 -0.377 0.249 -0.711 0.553 -0.939 l 9.936 -7.494 V 64.89 L 2.288 51.343 z M 28.091 83.189 c -0.629 0.476 -1.523 0.348 -1.997 -0.279 l -3.981 -5.278 H 35.46 L 28.091 83.189 z M 88 74.206 c 0 0.786 -0.64 1.426 -1.426 1.426 h -48.12 c -0.002 0 -0.004 -0.001 -0.006 -0.001 H 20.107 c -0.002 0 -0.005 0.001 -0.007 0.001 h -4.17 c -0.786 0 -1.425 -0.64 -1.425 -1.426 v -6.329 v -28.03 v -5.179 c 0 -0.786 0.639 -1.425 1.425 -1.425 h 7.657 h 57.603 h 5.385 c 0.786 0 1.426 0.639 1.426 1.425 V 74.206 z" style="stroke: none; stroke-width: 1; stroke-dasharray: none; stroke-linecap: butt; stroke-linejoin: miter; stroke-miterlimit: 10; fill:#f5821f; fill-rule: nonzero; opacity: 1;" transform=" matrix(1 0 0 1 0 0) " stroke-linecap="round"/>
	<path d="M 33.47 40.341 H 23.258 c -1.382 0 -2.506 1.125 -2.506 2.506 v 7.736 c 0 1.382 1.125 2.507 2.506 2.507 H 33.47 c 1.382 0 2.507 -1.125 2.507 -2.507 v -7.736 C 35.977 41.466 34.853 40.341 33.47 40.341 z M 33.977 50.584 c 0 0.279 -0.228 0.507 -0.507 0.507 H 23.258 c -0.279 0 -0.506 -0.228 -0.506 -0.507 v -7.736 c 0 -0.279 0.227 -0.506 0.506 -0.506 H 33.47 c 0.279 0 0.507 0.227 0.507 0.506 V 50.584 z" style="stroke: none; stroke-width: 1; stroke-dasharray: none; stroke-linecap: butt; stroke-linejoin: miter; stroke-miterlimit: 10; fill:#f5821f; fill-rule: nonzero; opacity: 1;" transform=" matrix(1 0 0 1 0 0) " stroke-linecap="round"/>
	<path d="M 31.488 63.959 h -9.737 c -0.552 0 -1 0.447 -1 1 c 0 0.553 0.448 1 1 1 h 9.737 c 0.552 0 1 -0.447 1 -1 C 32.488 64.406 32.041 63.959 31.488 63.959 z" style="stroke: none; stroke-width: 1; stroke-dasharray: none; stroke-linecap: butt; stroke-linejoin: miter; stroke-miterlimit: 10; fill:#f5821f; fill-rule: nonzero; opacity: 1;" transform=" matrix(1 0 0 1 0 0) " stroke-linecap="round"/>
	<path d="M 47.909 63.959 h -9.736 c -0.552 0 -1 0.447 -1 1 c 0 0.553 0.448 1 1 1 h 9.736 c 0.553 0 1 -0.447 1 -1 C 48.909 64.406 48.462 63.959 47.909 63.959 z" style="stroke: none; stroke-width: 1; stroke-dasharray: none; stroke-linecap: butt; stroke-linejoin: miter; stroke-miterlimit: 10; fill:#f5821f; fill-rule: nonzero; opacity: 1;" transform=" matrix(1 0 0 1 0 0) " stroke-linecap="round"/>
	<path d="M 64.331 63.959 h -9.737 c -0.553 0 -1 0.447 -1 1 c 0 0.553 0.447 1 1 1 h 9.737 c 0.553 0 1 -0.447 1 -1 C 65.331 64.406 64.884 63.959 64.331 63.959 z" style="stroke: none; stroke-width: 1; stroke-dasharray: none; stroke-linecap: butt; stroke-linejoin: miter; stroke-miterlimit: 10; fill:#f5821f; fill-rule: nonzero; opacity: 1;" transform=" matrix(1 0 0 1 0 0) " stroke-linecap="round"/>
	<path d="M 80.752 63.959 h -9.736 c -0.553 0 -1 0.447 -1 1 c 0 0.553 0.447 1 1 1 h 9.736 c 0.553 0 1 -0.447 1 -1 C 81.752 64.406 81.304 63.959 80.752 63.959 z" style="stroke: none; stroke-width: 1; stroke-dasharray: none; stroke-linecap: butt; stroke-linejoin: miter; stroke-miterlimit: 10; fill:#f5821f; fill-rule: nonzero; opacity: 1;" transform=" matrix(1 0 0 1 0 0) " stroke-linecap="round"/>
	<path d="M 80.752 40.341 H 54.594 c -0.553 0 -1 0.448 -1 1 s 0.447 1 1 1 h 26.158 c 0.553 0 1 -0.448 1 -1 S 81.304 40.341 80.752 40.341 z" style="stroke: none; stroke-width: 1; stroke-dasharray: none; stroke-linecap: butt; stroke-linejoin: miter; stroke-miterlimit: 10; fill:#f5821f; fill-rule: nonzero; opacity: 1;" transform=" matrix(1 0 0 1 0 0) " stroke-linecap="round"/>
</g>
</svg>