<svg xmlns="http://www.w3.org/2000/svg" xmlns:xlink="http://www.w3.org/1999/xlink" version="1.1" width="256" height="256" viewBox="0 0 256 256" xml:space="preserve">

<defs fill="#f5821f">
</defs>
<g style="stroke: none; stroke-width: 0; stroke-dasharray: none; stroke-linecap: butt; stroke-linejoin: miter; stroke-miterlimit: 10; fill: none; fill-rule: nonzero; opacity: 1;" transform="translate(1.4065934065934016 1.4065934065934016) scale(2.81 2.81)">
	<path d="M 40.356 74.347 c -0.256 0 -0.512 -0.098 -0.707 -0.293 L 15.946 50.352 c -0.188 -0.188 -0.293 -0.441 -0.293 -0.707 s 0.105 -0.52 0.293 -0.707 l 33.646 -33.646 c 7.24 -7.241 16.809 -12.035 26.944 -13.5 l 12.32 -1.781 c 0.306 -0.044 0.627 0.06 0.85 0.283 c 0.223 0.223 0.328 0.538 0.282 0.85 l -1.78 12.32 c -1.465 10.135 -6.26 19.704 -13.5 26.944 L 41.063 74.054 C 40.868 74.249 40.612 74.347 40.356 74.347 z M 18.067 49.645 l 22.289 22.288 l 32.939 -32.939 c 6.938 -6.938 11.531 -16.106 12.936 -25.816 l 1.589 -10.996 L 76.822 3.771 c -9.71 1.403 -18.878 5.997 -25.815 12.935 L 18.067 49.645 z" style="stroke: none; stroke-width: 1; stroke-dasharray: none; stroke-linecap: butt; stroke-linejoin: miter; stroke-miterlimit: 10; fill:#f5821f; fill-rule: nonzero; opacity: 1;" transform=" matrix(1 0 0 1 0 0) " stroke-linecap="round"/>
	<path d="M 16.653 50.645 c -0.029 0 -0.059 -0.001 -0.088 -0.004 L 0.912 49.257 c -0.387 -0.034 -0.719 -0.289 -0.852 -0.654 s -0.042 -0.774 0.233 -1.049 l 19.596 -19.596 c 0.209 -0.209 0.501 -0.314 0.795 -0.289 l 15.654 1.383 c 0.387 0.034 0.719 0.29 0.852 0.654 c 0.133 0.365 0.042 0.774 -0.233 1.049 L 17.36 50.352 C 17.172 50.54 16.917 50.645 16.653 50.645 z M 3.222 47.453 l 13.055 1.154 l 17.751 -17.751 l -13.055 -1.154 L 3.222 47.453 z" style="stroke: none; stroke-width: 1; stroke-dasharray: none; stroke-linecap: butt; stroke-linejoin: miter; stroke-miterlimit: 10; fill:#f5821f; fill-rule: nonzero; opacity: 1;" transform=" matrix(1 0 0 1 0 0) " stroke-linecap="round"/>
	<path d="M 41.739 90 c -0.115 0 -0.23 -0.02 -0.342 -0.061 c -0.365 -0.132 -0.62 -0.465 -0.654 -0.852 L 39.36 73.435 c -0.026 -0.295 0.08 -0.586 0.289 -0.795 l 19.596 -19.596 c 0.273 -0.275 0.683 -0.367 1.049 -0.232 c 0.365 0.133 0.62 0.465 0.654 0.852 l 1.383 15.653 c 0.026 0.295 -0.08 0.586 -0.289 0.795 L 42.446 89.707 C 42.255 89.898 42 90 41.739 90 z M 41.393 73.724 l 1.154 13.055 l 17.751 -17.751 l -1.153 -13.055 L 41.393 73.724 z" style="stroke: none; stroke-width: 1; stroke-dasharray: none; stroke-linecap: butt; stroke-linejoin: miter; stroke-miterlimit: 10; fill:#f5821f; fill-rule: nonzero; opacity: 1;" transform=" matrix(1 0 0 1 0 0) " stroke-linecap="round"/>
	<path d="M 28.022 75.094 c -0.259 0 -0.515 -0.1 -0.708 -0.293 L 15.199 62.685 c -0.327 -0.326 -0.387 -0.834 -0.147 -1.228 l 4.955 -8.126 c 0.16 -0.262 0.431 -0.437 0.735 -0.473 c 0.306 -0.036 0.609 0.069 0.826 0.286 l 15.288 15.287 c 0.217 0.217 0.322 0.521 0.286 0.825 c -0.037 0.305 -0.211 0.576 -0.473 0.735 l -8.126 4.955 C 28.381 75.046 28.201 75.094 28.022 75.094 z M 17.169 61.826 L 28.173 72.83 l 6.37 -3.884 l -13.49 -13.488 L 17.169 61.826 z" style="stroke: none; stroke-width: 1; stroke-dasharray: none; stroke-linecap: butt; stroke-linejoin: miter; stroke-miterlimit: 10; fill:#f5821f; fill-rule: nonzero; opacity: 1;" transform=" matrix(1 0 0 1 0 0) " stroke-linecap="round"/>
	<path d="M 80.548 32.47 c -0.256 0 -0.512 -0.098 -0.707 -0.293 L 57.823 10.159 c -0.391 -0.391 -0.391 -1.023 0 -1.414 s 1.023 -0.391 1.414 0 l 22.018 22.018 c 0.391 0.391 0.391 1.023 0 1.414 C 81.06 32.372 80.804 32.47 80.548 32.47 z" style="stroke: none; stroke-width: 1; stroke-dasharray: none; stroke-linecap: butt; stroke-linejoin: miter; stroke-miterlimit: 10; fill:#f5821f; fill-rule: nonzero; opacity: 1;" transform=" matrix(1 0 0 1 0 0) " stroke-linecap="round"/>
	<path d="M 38.945 61.413 c -0.256 0 -0.512 -0.098 -0.707 -0.293 l -16.53 -16.53 c -0.391 -0.391 -0.391 -1.023 0 -1.414 s 1.023 -0.391 1.414 0 l 16.53 16.53 c 0.391 0.391 0.391 1.023 0 1.414 C 39.457 61.315 39.201 61.413 38.945 61.413 z" style="stroke: none; stroke-width: 1; stroke-dasharray: none; stroke-linecap: butt; stroke-linejoin: miter; stroke-miterlimit: 10; fill:#f5821f; fill-rule: nonzero; opacity: 1;" transform=" matrix(1 0 0 1 0 0) " stroke-linecap="round"/>
	<path d="M 54.531 44.68 c -2.46 0 -4.773 -0.958 -6.513 -2.698 c -1.74 -1.74 -2.698 -4.053 -2.698 -6.514 s 0.958 -4.773 2.698 -6.513 c 1.739 -1.74 4.053 -2.698 6.513 -2.698 c 2.461 0 4.773 0.958 6.514 2.698 s 2.698 4.053 2.698 6.513 s -0.958 4.774 -2.698 6.514 S 56.992 44.68 54.531 44.68 z M 54.531 28.257 c -1.926 0 -3.736 0.75 -5.099 2.112 l 0 0 c -1.362 1.362 -2.112 3.173 -2.112 5.099 s 0.75 3.737 2.112 5.1 c 1.362 1.362 3.173 2.112 5.099 2.112 c 1.927 0 3.737 -0.75 5.1 -2.112 c 1.362 -1.362 2.112 -3.173 2.112 -5.1 s -0.75 -3.737 -2.112 -5.099 C 58.269 29.007 56.458 28.257 54.531 28.257 z M 48.726 29.662 h 0.01 H 48.726 z" style="stroke: none; stroke-width: 1; stroke-dasharray: none; stroke-linecap: butt; stroke-linejoin: miter; stroke-miterlimit: 10; fill:#f5821f; fill-rule: nonzero; opacity: 1;" transform=" matrix(1 0 0 1 0 0) " stroke-linecap="round"/>
	<path d="M 7.883 83.117 c -0.257 0 -0.514 -0.099 -0.708 -0.293 c -0.356 -0.356 -0.392 -0.923 -0.083 -1.321 c 1.267 -1.629 1.349 -3.439 1.443 -5.536 c 0.139 -3.087 0.312 -6.929 4.541 -11.157 c 1.131 -1.132 2.559 -1.921 4.129 -2.282 c 0.541 -0.125 1.076 0.212 1.199 0.75 c 0.124 0.538 -0.212 1.075 -0.75 1.199 c -1.204 0.277 -2.298 0.881 -3.164 1.747 c -3.68 3.681 -3.821 6.809 -3.957 9.833 c -0.058 1.285 -0.117 2.595 -0.472 3.881 c 1.287 -0.354 2.596 -0.414 3.88 -0.472 c 3.025 -0.136 6.153 -0.276 9.834 -3.957 c 0.866 -0.865 1.47 -1.959 1.747 -3.164 c 0.124 -0.538 0.66 -0.875 1.199 -0.75 c 0.538 0.124 0.874 0.661 0.75 1.199 c -0.362 1.57 -1.151 2.998 -2.282 4.129 c -4.229 4.229 -8.071 4.402 -11.158 4.541 c -2.096 0.095 -3.906 0.176 -5.536 1.442 C 8.314 83.048 8.098 83.117 7.883 83.117 z" style="stroke: none; stroke-width: 1; stroke-dasharray: none; stroke-linecap: butt; stroke-linejoin: miter; stroke-miterlimit: 10; fill:#f5821f; fill-rule: nonzero; opacity: 1;" transform=" matrix(1 0 0 1 0 0) " stroke-linecap="round"/>
</g>
</svg>