<svg aria-hidden="true" style="position: absolute; width: 0; height: 0; overflow: hidden;" version="1.1" xmlns="http://www.w3.org/2000/svg" xmlns:xlink="http://www.w3.org/1999/xlink">
<defs>
<symbol id="credit-card" viewBox="0 0 32 32">
<path d="M20.758 5.79l-4.524 3.412c-0.155 0.117-0.186 0.337-0.069 0.492 0.069 0.092 0.174 0.14 0.281 0.14 0.073 0 0.148-0.023 0.211-0.071l4.524-3.412c0.155-0.117 0.185-0.337 0.069-0.492s-0.337-0.186-0.492-0.069z"></path>
<path d="M30.585 11.15h-1.716l-6.718-8.907c-0.399-0.529-1.155-0.636-1.685-0.236l-12.123 9.143h-2.572c-0.663 0-1.203 0.54-1.203 1.203v1.644l-3.913 2.951c-0.256 0.194-0.423 0.476-0.467 0.794s0.038 0.635 0.231 0.891l4.149 5.502v2.105c0 0.663 0.54 1.203 1.203 1.203h1.292l1.717 2.277c0.236 0.313 0.597 0.478 0.962 0.478 0.252 0 0.507-0.079 0.723-0.242l3.332-2.513h16.787c0.663 0 1.203-0.54 1.203-1.203v-13.888c-0-0.664-0.54-1.203-1.204-1.203zM20.889 2.568c0.107-0.081 0.24-0.115 0.371-0.096 0.133 0.019 0.25 0.088 0.33 0.194l6.398 8.484h-18.479l11.38-8.582zM0.979 18.21c-0.080-0.107-0.115-0.238-0.096-0.371s0.087-0.25 0.194-0.33l3.49-2.632v8.091l-3.588-4.758zM10.043 29.396c-0.221 0.167-0.535 0.122-0.701-0.098l-1.398-1.854h4.688l-2.588 1.952zM31.086 26.241c0 0.276-0.225 0.501-0.501 0.501h-16.902c-0.001 0-0.001-0-0.002-0h-6.442c-0.001 0-0.002 0-0.002 0h-1.465c-0.276 0-0.501-0.225-0.501-0.501v-13.888c0-0.276 0.224-0.501 0.501-0.501h24.814c0.276 0 0.501 0.224 0.501 0.501v13.888z"></path>
<path d="M11.932 14.346h-3.587c-0.485 0-0.88 0.395-0.88 0.88v2.717c0 0.485 0.395 0.881 0.88 0.881h3.587c0.485 0 0.881-0.395 0.881-0.881v-2.717c0-0.485-0.395-0.88-0.881-0.88zM12.11 17.943c0 0.098-0.080 0.178-0.178 0.178h-3.587c-0.098 0-0.178-0.080-0.178-0.178v-2.717c0-0.098 0.080-0.178 0.178-0.178h3.587c0.098 0 0.178 0.080 0.178 0.178v2.717z"></path>
<path d="M11.236 22.641h-3.42c-0.194 0-0.351 0.157-0.351 0.351s0.157 0.351 0.351 0.351h3.42c0.194 0 0.351-0.157 0.351-0.351s-0.157-0.351-0.351-0.351z"></path>
<path d="M17.004 22.641h-3.42c-0.194 0-0.351 0.157-0.351 0.351s0.157 0.351 0.351 0.351h3.42c0.194 0 0.351-0.157 0.351-0.351s-0.157-0.351-0.351-0.351z"></path>
<path d="M22.772 22.641h-3.42c-0.194 0-0.351 0.157-0.351 0.351s0.157 0.351 0.351 0.351h3.42c0.194 0 0.351-0.157 0.351-0.351s-0.157-0.351-0.351-0.351z"></path>
<path d="M28.54 22.641h-3.42c-0.194 0-0.351 0.157-0.351 0.351s0.157 0.351 0.351 0.351h3.42c0.194 0 0.351-0.157 0.351-0.351s-0.157-0.351-0.351-0.351z"></path>
<path d="M28.54 14.346h-9.188c-0.194 0-0.351 0.157-0.351 0.351s0.157 0.351 0.351 0.351h9.188c0.194 0 0.351-0.157 0.351-0.351s-0.157-0.351-0.351-0.351z"></path>
</symbol>
<symbol id="clock" viewBox="0 0 32 32">
<path d="M16 1.28c-8.151 0-14.72 6.569-14.72 14.72s6.569 14.72 14.72 14.72c8.151 0 14.72-6.569 14.72-14.72s-6.569-14.72-14.72-14.72zM16 2.56c7.465 0 13.44 5.975 13.44 13.44s-5.975 13.44-13.44 13.44c-7.465 0-13.44-5.975-13.44-13.44s5.975-13.44 13.44-13.44zM15.99 4.471c-0.349 0.006-0.63 0.29-0.63 0.64 0 0.003 0 0.006 0 0.009v-0 9.071c-0.756 0.255-1.28 0.948-1.28 1.809 0 0.302 0.069 0.58 0.185 0.83l-3.838 3.837c-0.121 0.117-0.197 0.28-0.197 0.462 0 0.354 0.287 0.64 0.64 0.64 0.181 0 0.345-0.075 0.462-0.197l0-0 3.838-3.837c0.25 0.116 0.528 0.185 0.83 0.185 1.088 0 1.92-0.832 1.92-1.92 0-0.86-0.524-1.553-1.28-1.809v-9.071c0-0.003 0-0.006 0-0.009 0-0.354-0.287-0.64-0.64-0.64-0.004 0-0.007 0-0.011 0h0.001z"></path>
</symbol>
<symbol id="chat" viewBox="0 0 32 32">
<path d="M28.333 26.778c2.231-2.355 3.456-5.424 3.456-8.681 0-5.618-3.754-10.595-9.14-12.142-2.318-2.876-5.866-4.721-9.839-4.721-6.966 0-12.633 5.667-12.633 12.633 0 3.257 1.224 6.326 3.455 8.682l-3.352 3.352c-0.1 0.1-0.131 0.252-0.076 0.383s0.183 0.217 0.325 0.217h9.198c2.398 2.689 5.824 4.23 9.429 4.23h12.282c0.142 0 0.27-0.085 0.325-0.217s0.024-0.282-0.076-0.383l-3.353-3.353zM4.373 22.8c0.137-0.137 0.137-0.359 0-0.497-2.254-2.254-3.495-5.25-3.495-8.437 0-6.579 5.352-11.931 11.931-11.931s11.931 5.352 11.931 11.931c0 6.579-5.352 11.931-11.931 11.931h-11.434l2.998-2.998zM19.155 30.028c-3.19 0-6.231-1.278-8.465-3.528h2.12c6.966 0 12.633-5.667 12.633-12.633 0-2.561-0.768-4.945-2.083-6.937 4.597 1.732 7.726 6.182 7.726 11.167 0 3.187-1.241 6.183-3.495 8.437-0.066 0.066-0.103 0.155-0.103 0.248s0.037 0.183 0.103 0.248l2.998 2.998h-11.435z"></path>
<path d="M18.507 8.602h-11.397c-0.194 0-0.351-0.157-0.351-0.351s0.157-0.351 0.351-0.351h11.397c0.194 0 0.351 0.157 0.351 0.351s-0.157 0.351-0.352 0.351z"></path>
<path d="M18.507 12.115h-11.397c-0.194 0-0.351-0.157-0.351-0.351s0.157-0.351 0.351-0.351h11.397c0.194 0 0.351 0.157 0.351 0.351s-0.157 0.351-0.352 0.351z"></path>
<path d="M18.507 15.627h-11.397c-0.194 0-0.351-0.157-0.351-0.351s0.157-0.351 0.351-0.351h11.397c0.194 0 0.351 0.157 0.351 0.351s-0.157 0.351-0.352 0.351z"></path>
<path d="M12.91 19.14h-5.8c-0.194 0-0.351-0.157-0.351-0.351s0.157-0.351 0.351-0.351h5.801c0.194 0 0.351 0.157 0.351 0.351s-0.157 0.351-0.352 0.351z"></path>
</symbol>
<symbol id="rocket" viewBox="0 0 32 32">
<path d="M14.351 26.29c-0.090 0-0.18-0.034-0.248-0.103l-8.326-8.325c-0.066-0.066-0.103-0.155-0.103-0.248s0.037-0.183 0.103-0.248l11.818-11.818c2.543-2.543 5.904-4.227 9.464-4.742l4.327-0.626c0.107-0.015 0.22 0.021 0.299 0.099s0.115 0.189 0.099 0.299l-0.625 4.327c-0.515 3.56-2.199 6.921-4.742 9.464l-11.818 11.818c-0.069 0.069-0.158 0.103-0.248 0.103zM6.522 17.614l7.829 7.829 11.57-11.57c2.437-2.437 4.050-5.657 4.544-9.068l0.558-3.862-3.863 0.558c-3.411 0.493-6.631 2.106-9.068 4.543l-11.57 11.57z"></path>
<path d="M6.025 17.965c-0.010 0-0.021-0-0.031-0.001l-5.498-0.486c-0.136-0.012-0.253-0.102-0.299-0.23s-0.015-0.272 0.082-0.368l6.883-6.883c0.073-0.073 0.176-0.11 0.279-0.101l5.498 0.486c0.136 0.012 0.253 0.102 0.299 0.23s0.015 0.272-0.082 0.368l-6.883 6.883c-0.066 0.066-0.156 0.103-0.248 0.103zM1.308 16.844l4.586 0.405 6.235-6.235-4.586-0.405-6.235 6.235z"></path>
<path d="M14.837 31.788c-0.040 0-0.081-0.007-0.12-0.021-0.128-0.046-0.218-0.163-0.23-0.299l-0.486-5.498c-0.009-0.104 0.028-0.206 0.101-0.279l6.883-6.883c0.096-0.097 0.24-0.129 0.368-0.081s0.218 0.163 0.23 0.299l0.486 5.498c0.009 0.104-0.028 0.206-0.102 0.279l-6.883 6.883c-0.067 0.067-0.157 0.103-0.248 0.103zM14.715 26.071l0.405 4.586 6.235-6.235-0.405-4.586-6.235 6.235z"></path>
<path d="M10.019 26.553c-0.091 0-0.181-0.035-0.249-0.103l-4.255-4.256c-0.115-0.114-0.136-0.293-0.052-0.431l1.74-2.854c0.056-0.092 0.151-0.154 0.258-0.166s0.214 0.024 0.29 0.1l5.37 5.37c0.076 0.076 0.113 0.183 0.1 0.29s-0.074 0.202-0.166 0.258l-2.854 1.74c-0.057 0.035-0.12 0.052-0.183 0.052zM6.206 21.892l3.865 3.865 2.237-1.364-4.738-4.738-1.364 2.237z"></path>
<path d="M28.468 11.581c-0.090 0-0.18-0.034-0.248-0.103l-7.734-7.734c-0.137-0.137-0.137-0.359 0-0.497s0.359-0.137 0.497 0l7.734 7.734c0.137 0.137 0.137 0.359 0 0.497-0.069 0.069-0.158 0.103-0.248 0.103z"></path>
<path d="M13.855 21.747c-0.090 0-0.18-0.034-0.248-0.103l-5.806-5.806c-0.137-0.137-0.137-0.359 0-0.497s0.359-0.137 0.497 0l5.806 5.806c0.137 0.137 0.137 0.359 0 0.497-0.069 0.069-0.158 0.103-0.248 0.103z"></path>
<path d="M19.33 15.87c-0.864 0-1.677-0.336-2.288-0.948s-0.948-1.424-0.948-2.288 0.337-1.677 0.948-2.288c0.611-0.611 1.424-0.948 2.288-0.948s1.677 0.336 2.288 0.948 0.948 1.424 0.948 2.288-0.337 1.677-0.948 2.288-1.424 0.948-2.288 0.948zM19.33 10.101c-0.677 0-1.312 0.263-1.791 0.742v0c-0.478 0.478-0.742 1.115-0.742 1.791s0.263 1.313 0.742 1.791c0.478 0.478 1.115 0.742 1.791 0.742s1.313-0.263 1.791-0.742c0.478-0.478 0.742-1.115 0.742-1.791s-0.263-1.313-0.742-1.791c-0.478-0.478-1.115-0.742-1.791-0.742zM17.291 10.595v0z"></path>
<path d="M2.945 29.371c-0.090 0-0.181-0.035-0.249-0.103-0.125-0.125-0.138-0.324-0.029-0.464 0.445-0.572 0.474-1.208 0.507-1.945 0.049-1.084 0.11-2.434 1.595-3.919 0.397-0.398 0.899-0.675 1.45-0.802 0.19-0.044 0.378 0.074 0.421 0.263s-0.074 0.378-0.263 0.421c-0.423 0.097-0.807 0.309-1.111 0.614-1.293 1.293-1.342 2.392-1.39 3.454-0.020 0.451-0.041 0.912-0.166 1.363 0.452-0.124 0.912-0.145 1.363-0.166 1.063-0.048 2.161-0.097 3.454-1.39 0.304-0.304 0.516-0.688 0.614-1.111 0.044-0.189 0.232-0.307 0.421-0.263s0.307 0.232 0.263 0.421c-0.127 0.551-0.404 1.053-0.802 1.45-1.485 1.485-2.835 1.546-3.919 1.595-0.736 0.033-1.372 0.062-1.945 0.506-0.064 0.050-0.139 0.074-0.215 0.074z"></path>
</symbol>
<symbol id="circle_right" viewBox="0 0 32 32">
<path d="M16 0c-8.837 0-16 7.163-16 16s7.163 16 16 16 16-7.163 16-16-7.163-16-16-16zM16 29c-7.18 0-13-5.82-13-13s5.82-13 13-13 13 5.82 13 13-5.82 13-13 13z"></path>
<path d="M11.086 22.086l2.829 2.829 8.914-8.914-8.914-8.914-2.828 2.828 6.086 6.086z"></path>
</symbol>
<symbol id="circle_left" viewBox="0 0 32 32">
<path d="M16 32c8.837 0 16-7.163 16-16s-7.163-16-16-16-16 7.163-16 16 7.163 16 16 16zM16 3c7.18 0 13 5.82 13 13s-5.82 13-13 13-13-5.82-13-13 5.82-13 13-13z"></path>
<path d="M20.914 9.914l-2.829-2.829-8.914 8.914 8.914 8.914 2.828-2.828-6.086-6.086z"></path>
</symbol>
<symbol id="facebook" viewBox="0 0 32 32">
<path d="M29 0h-26c-1.65 0-3 1.35-3 3v26c0 1.65 1.35 3 3 3h13v-14h-4v-4h4v-2c0-3.306 2.694-6 6-6h4v4h-4c-1.1 0-2 0.9-2 2v2h6l-1 4h-5v14h9c1.65 0 3-1.35 3-3v-26c0-1.65-1.35-3-3-3z"></path>
</symbol>
<symbol id="instagram" viewBox="0 0 32 32">
<path d="M16 2.881c4.275 0 4.781 0.019 6.462 0.094 1.563 0.069 2.406 0.331 2.969 0.55 0.744 0.288 1.281 0.638 1.837 1.194 0.563 0.563 0.906 1.094 1.2 1.838 0.219 0.563 0.481 1.412 0.55 2.969 0.075 1.688 0.094 2.194 0.094 6.463s-0.019 4.781-0.094 6.463c-0.069 1.563-0.331 2.406-0.55 2.969-0.288 0.744-0.637 1.281-1.194 1.837-0.563 0.563-1.094 0.906-1.837 1.2-0.563 0.219-1.413 0.481-2.969 0.55-1.688 0.075-2.194 0.094-6.463 0.094s-4.781-0.019-6.463-0.094c-1.563-0.069-2.406-0.331-2.969-0.55-0.744-0.288-1.281-0.637-1.838-1.194-0.563-0.563-0.906-1.094-1.2-1.837-0.219-0.563-0.481-1.413-0.55-2.969-0.075-1.688-0.094-2.194-0.094-6.463s0.019-4.781 0.094-6.463c0.069-1.563 0.331-2.406 0.55-2.969 0.288-0.744 0.638-1.281 1.194-1.838 0.563-0.563 1.094-0.906 1.838-1.2 0.563-0.219 1.412-0.481 2.969-0.55 1.681-0.075 2.188-0.094 6.463-0.094zM16 0c-4.344 0-4.887 0.019-6.594 0.094-1.7 0.075-2.869 0.35-3.881 0.744-1.056 0.412-1.95 0.956-2.837 1.85-0.894 0.888-1.438 1.781-1.85 2.831-0.394 1.019-0.669 2.181-0.744 3.881-0.075 1.713-0.094 2.256-0.094 6.6s0.019 4.887 0.094 6.594c0.075 1.7 0.35 2.869 0.744 3.881 0.413 1.056 0.956 1.95 1.85 2.837 0.887 0.887 1.781 1.438 2.831 1.844 1.019 0.394 2.181 0.669 3.881 0.744 1.706 0.075 2.25 0.094 6.594 0.094s4.888-0.019 6.594-0.094c1.7-0.075 2.869-0.35 3.881-0.744 1.050-0.406 1.944-0.956 2.831-1.844s1.438-1.781 1.844-2.831c0.394-1.019 0.669-2.181 0.744-3.881 0.075-1.706 0.094-2.25 0.094-6.594s-0.019-4.887-0.094-6.594c-0.075-1.7-0.35-2.869-0.744-3.881-0.394-1.063-0.938-1.956-1.831-2.844-0.887-0.887-1.781-1.438-2.831-1.844-1.019-0.394-2.181-0.669-3.881-0.744-1.712-0.081-2.256-0.1-6.6-0.1v0z"></path>
<path d="M16 7.781c-4.537 0-8.219 3.681-8.219 8.219s3.681 8.219 8.219 8.219 8.219-3.681 8.219-8.219c0-4.537-3.681-8.219-8.219-8.219zM16 21.331c-2.944 0-5.331-2.387-5.331-5.331s2.387-5.331 5.331-5.331c2.944 0 5.331 2.387 5.331 5.331s-2.387 5.331-5.331 5.331z"></path>
<path d="M26.462 7.456c0 1.060-0.859 1.919-1.919 1.919s-1.919-0.859-1.919-1.919c0-1.060 0.859-1.919 1.919-1.919s1.919 0.859 1.919 1.919z"></path>
</symbol>
<symbol id="glass" viewBox="0 0 32 32">
<path d="M31.121 26.878l-5.332-5.332c1.398-2.178 2.211-4.767 2.211-7.546 0-7.732-6.268-14-14-14s-14 6.268-14 14 6.268 14 14 14c2.78 0 5.368-0.814 7.546-2.211l5.332 5.332c1.172 1.172 3.071 1.172 4.242 0s1.172-3.070 0-4.242zM14 27c-7.179 0-13-5.82-13-13s5.821-13 13-13 13 5.821 13 13-5.82 13-13 13zM30.414 30.414c-0.781 0.781-2.047 0.781-2.828 0l-5.201-5.201c1.073-0.803 2.026-1.756 2.828-2.828l5.201 5.201c0.782 0.78 0.782 2.047 0 2.828z"></path>
<path d="M14 2c-6.628 0-12 5.372-12 12s5.372 12 12 12 12-5.372 12-12-5.372-12-12-12zM14 25c-6.075 0-11-4.925-11-11s4.925-11 11-11 11 4.925 11 11-4.925 11-11 11z"></path>
<path d="M14 5.5c-0.277 0-0.5 0.223-0.5 0.5s0.223 0.5 0.5 0.5c4.142 0 7.5 3.358 7.5 7.5 0 0.277 0.224 0.5 0.5 0.5s0.5-0.223 0.5-0.5c0-4.694-3.805-8.5-8.5-8.5z"></path>
</symbol>
</defs>
</svg>
